<svg width="50" height="33" viewBox="0 0 50 33" fill="none" xmlns="http://www.w3.org/2000/svg">
<g id="silly face idle">
<path id="Vector 9" d="M2.08561 11.5565C0.955101 13.9035 0.113751 15.3909 0.0123285 18.0516C-0.0869058 20.6548 0.412912 22.9737 1.51232 24.5516C3.09884 26.8285 4.31028 27.6964 6.58565 29.0516C9.3744 30.7124 11.3259 30.9331 14.5123 31.5515C18.5423 32.3337 25.0123 32.0515 25.0123 32.0515C25.0123 32.0515 32.1035 32.0782 36.5123 31.1538C39.3327 30.5625 41.151 30.5933 43.5856 29.0516C46.0218 27.5088 47.3348 26.027 48.5123 23.5516C49.4501 21.5801 49.5902 20.2333 49.5123 18.0516C49.4176 15.3992 48.6263 13.8706 47.5123 11.5565C46.5001 9.45366 45.5326 7.83818 43.5856 6.05651C41.5654 4.20781 39.5426 2.79587 36.5123 1.5565C31.988 -0.293957 29.5413 -0.00832855 25.0123 0.0515487C20.8986 0.105936 18.4125 0.160769 14.5123 1.5565C11.1609 2.75586 9.25288 3.69924 6.58565 6.05651C4.50617 7.89432 3.28993 9.05623 2.08561 11.5565Z" fill="#21211D"/>
<path id="Vector 10" d="M14.349 10.2454C13.3916 10.0539 13.1309 9.95859 12.1793 10.1768C10.5421 10.5523 9.51869 11.2219 8.67934 12.6768C7.8927 14.0405 8.00325 15.1892 8.34902 16.7454C8.63122 18.0154 9.08882 18.6655 9.83381 19.7238L9.84902 19.7454C11.0438 21.4427 12.3568 22.9307 13.849 23.2454C15.0112 23.4904 15.7168 23.6043 16.849 23.2454C18.0976 22.8495 19.2309 22.0443 20.0854 21.0515C21.0128 19.9741 21.1372 19.0718 21.0854 17.5515C21.0434 16.3173 20.738 15.8721 20.0854 14.5515C19.5316 13.4306 19.0537 12.8425 18.0854 12.0515C17.071 11.2228 15.6334 10.5022 14.349 10.2454Z" fill="url(#paint0_radial_466_1571)"/>
<path id="Vector 11" d="M34.8267 10.2393C35.7833 10.0538 36.0438 9.96151 36.9947 10.1729C38.6306 10.5366 39.6533 11.1851 40.492 12.5942C41.2781 13.915 41.1676 15.0276 40.8221 16.5347C40.5401 17.7648 40.0828 18.3944 39.3384 19.4194L39.3232 19.4403C38.1294 21.0842 36.8174 22.5254 35.3263 22.8302C34.165 23.0676 33.4599 23.1779 32.3286 22.8302C31.081 22.4468 29.9485 21.6669 29.0946 20.7054C28.168 19.6619 28.0436 18.788 28.0954 17.3155C28.1374 16.1201 28.4426 15.689 29.0946 14.4099C29.648 13.3243 30.1256 12.7547 31.0931 11.9886C32.1067 11.186 33.5433 10.4881 34.8267 10.2393Z" fill="url(#paint1_radial_466_1571)"/>
</g>
<defs>
<radialGradient id="paint0_radial_466_1571" cx="0" cy="0" r="1" gradientUnits="userSpaceOnUse" gradientTransform="translate(14.4689 16.7627) rotate(86.3958) scale(9.80823 9.32921)">
<stop stopColor="#236A96"/>
<stop offset="1" stopColor="#A8C1D1"/>
</radialGradient>
<radialGradient id="paint1_radial_466_1571" cx="0" cy="0" r="1" gradientTransform="matrix(-0.616117 9.48081 9.30364 0.568022 34.7069 16.5515)" gradientUnits="userSpaceOnUse">
<stop stopColor="#236A96"/>
<stop offset="1" stopColor="#A8C1D1"/>
</radialGradient>
</defs>
</svg>
