<svg width="20" height="20" viewBox="0 0 20 20" fill="none" xmlns="http://www.w3.org/2000/svg">
<g clipPath="url(#clip0_405_885)">
<path fillRule="evenodd" clipRule="evenodd" d="M1.27293 14.4818C0.591094 13.1364 0.200195 11.6182 0.200195 10C0.200195 8.3818 0.591094 6.86363 1.27293 5.51816C2.91836 2.24547 6.29109 0 10.2002 0C12.9002 0 15.1547 0.990898 16.8911 2.6091L14.0274 5.47273C12.982 4.4909 11.6729 3.9818 10.2002 3.9818C7.6002 3.9818 5.39109 5.73637 4.6002 8.1C4.4002 8.7 4.28199 9.33633 4.28199 10C4.28199 10.6636 4.4002 11.3 4.6002 11.9L4.58836 11.9091H4.6002C5.39109 14.2727 7.6002 16.0273 10.2002 16.0273C11.5456 16.0273 12.682 15.6636 13.5729 15.0636C14.6366 14.3545 15.3456 13.3 15.582 12.0545H10.2002V8.1818H19.6184C19.7365 8.83637 19.8002 9.51816 19.8002 10.2273C19.8002 13.2727 18.7093 15.8363 16.8184 17.5818C15.1638 19.1091 12.9002 20 10.2002 20C6.29109 20 2.91836 17.7545 1.27293 14.4909V14.4818Z" fill="#3F3838"/>
</g>
<defs>
<clipPath id="clip0_405_885">
<rect width="20" height="20" fill="white"/>
</clipPath>
</defs>
</svg>
