<svg width="32" height="32" viewBox="0 0 32 32" fill="none" >
<g id="filters-svg">
<path id="Vector" d="M5.33301 6.66667H13.333M13.333 6.66667C13.333 8.13943 14.5269 9.33333 15.9997 9.33333C17.4725 9.33333 18.6663 8.13943 18.6663 6.66667M13.333 6.66667C13.333 5.19391 14.5269 4 15.9997 4C17.4725 4 18.6663 5.19391 18.6663 6.66667M18.6663 6.66667H26.6663M5.33301 16H21.333M21.333 16C21.333 17.4728 22.5269 18.6667 23.9997 18.6667C25.4725 18.6667 26.6663 17.4728 26.6663 16C26.6663 14.5272 25.4725 13.3333 23.9997 13.3333C22.5269 13.3333 21.333 14.5272 21.333 16ZM10.6663 25.3333H26.6663M10.6663 25.3333C10.6663 23.8605 9.47243 22.6667 7.99967 22.6667C6.52691 22.6667 5.33301 23.8605 5.33301 25.3333C5.33301 26.8061 6.52691 28 7.99967 28C9.47243 28 10.6663 26.8061 10.6663 25.3333Z" stroke="black" stroke-width="1.5" strokeLinecap="round"/>
</g>
</svg>
