<svg width="17" height="26" viewBox="0 0 17 26" fill="none" xmlns="http://www.w3.org/2000/svg">
<g id="mic-end">
<path id="Vector" d="M15.5758 9.41284C15.226 9.41284 14.9423 9.69646 14.9423 10.0463V13.4539C14.9423 17.484 11.4102 18.9199 8.10464 18.9199C4.79907 18.9199 1.26701 17.484 1.26701 13.4539V10.0463C1.26701 9.69646 0.983392 9.41284 0.633507 9.41284C0.283621 9.41284 0 9.69646 0 10.0463V13.4539C0 15.6007 0.844718 17.3659 2.44286 18.5587C3.73566 19.5236 5.46488 20.0748 7.4712 20.1704V24.7331H3.57386C3.22398 24.7331 2.94036 25.0167 2.94036 25.3666C2.94036 25.7165 3.22398 26.0001 3.57386 26.0001H12.6355C12.9854 26.0001 13.269 25.7165 13.269 25.3666C13.269 25.0167 12.9854 24.7331 12.6355 24.7331H8.73815V20.1704C10.7445 20.0749 12.4737 19.5236 13.7665 18.5587C15.3646 17.3659 16.2093 15.6007 16.2093 13.4539V10.0463C16.2093 9.69646 15.9257 9.41284 15.5758 9.41284Z" fill="black"/>
<path id="Vector_2" d="M3.88774 16.9613C4.92353 17.6384 6.34233 17.9818 8.10468 17.9818C9.86703 17.9818 11.2858 17.6384 12.3216 16.9613C13.558 16.1529 14.2116 14.8684 14.2116 13.2466V5.42111C14.2116 2.22925 11.7003 0 8.10468 0C4.50902 0 1.9978 2.22925 1.9978 5.42111V13.2466C1.99774 14.8684 2.65133 16.1529 3.88774 16.9613ZM8.10468 1.26701C10.5138 1.26701 12.9446 2.55151 12.9446 5.42111V6.00438H12.2382C11.8884 6.00438 11.6047 6.288 11.6047 6.63788C11.6047 6.98777 11.8884 7.27139 12.2382 7.27139H12.9446V8.74778H12.2382C11.8884 8.74778 11.6047 9.0314 11.6047 9.38128C11.6047 9.73117 11.8884 10.0148 12.2382 10.0148H12.9446V11.4912H12.2382C11.8884 11.4912 11.6047 11.7748 11.6047 12.1247C11.6047 12.4746 11.8884 12.7582 12.2382 12.7582H12.9446V13.2466C12.9446 14.4536 12.5141 15.3217 11.6283 15.9008C10.8138 16.4334 9.59532 16.7148 8.10468 16.7148C6.61404 16.7148 5.39562 16.4334 4.58105 15.9008C3.69535 15.3217 3.26482 14.4536 3.26482 13.2466V12.7582H8.47123C8.82112 12.7582 9.10474 12.4746 9.10474 12.1247C9.10474 11.7748 8.82112 11.4912 8.47123 11.4912H3.26482V10.0148H8.47123C8.82112 10.0148 9.10474 9.73117 9.10474 9.38128C9.10474 9.0314 8.82112 8.74778 8.47123 8.74778H3.26482V7.27139H8.47123C8.82112 7.27139 9.10474 6.98777 9.10474 6.63788C9.10474 6.288 8.82112 6.00438 8.47123 6.00438H3.26482V5.42111C3.26475 2.55151 5.69558 1.26701 8.10468 1.26701Z" fill="black"/>
</g>
</svg>
