<svg width="57" height="57" viewBox="0 0 57 57" fill="none" xmlns="http://www.w3.org/2000/svg">
<g id="mouse-wheel">
<path id="Vector" d="M28.5 11.875L29.7595 10.6155C29.0638 9.91985 27.9362 9.91985 27.2405 10.6155L28.5 11.875ZM28.5 30.875L27.2405 32.1345C27.9362 32.8301 29.0638 32.8301 29.7595 32.1345L28.5 30.875ZM22.4905 15.3655C21.7949 16.0611 21.7949 17.1889 22.4905 17.8845C23.1861 18.5801 24.3138 18.5801 25.0095 17.8845L22.4905 15.3655ZM31.9905 17.8845C32.6862 18.5801 33.8138 18.5801 34.5095 17.8845C35.2051 17.1889 35.2051 16.0611 34.5095 15.3655L31.9905 17.8845ZM25.0095 24.8655C24.3138 24.1699 23.1861 24.1699 22.4905 24.8655C21.7949 25.5612 21.7949 26.6888 22.4905 27.3845L25.0095 24.8655ZM34.5095 27.3845C35.2051 26.6888 35.2051 25.5612 34.5095 24.8655C33.8138 24.1699 32.6862 24.1699 31.9905 24.8655L34.5095 27.3845ZM7.71875 23.75V33.25H11.2812V23.75H7.71875ZM49.2812 33.25V23.75H45.7188V33.25H49.2812ZM26.7188 11.875V30.875H30.2812V11.875H26.7188ZM27.2405 10.6155L22.4905 15.3655L25.0095 17.8845L29.7595 13.1345L27.2405 10.6155ZM27.2405 13.1345L31.9905 17.8845L34.5095 15.3655L29.7595 10.6155L27.2405 13.1345ZM29.7595 29.6155L25.0095 24.8655L22.4905 27.3845L27.2405 32.1345L29.7595 29.6155ZM29.7595 32.1345L34.5095 27.3845L31.9905 24.8655L27.2405 29.6155L29.7595 32.1345ZM49.2812 23.75C49.2812 12.2728 39.9772 2.96875 28.5 2.96875V6.53125C38.0097 6.53125 45.7188 14.2404 45.7188 23.75H49.2812ZM28.5 54.0312C39.9772 54.0312 49.2812 44.7272 49.2812 33.25H45.7188C45.7188 42.7597 38.0097 50.4687 28.5 50.4687V54.0312ZM7.71875 33.25C7.71875 44.7272 17.0228 54.0312 28.5 54.0312V50.4687C18.9904 50.4687 11.2812 42.7597 11.2812 33.25H7.71875ZM11.2812 23.75C11.2812 14.2404 18.9904 6.53125 28.5 6.53125V2.96875C17.0228 2.96875 7.71875 12.2728 7.71875 23.75H11.2812Z" fill="black"/>
</g>
</svg>
