<svg width="114" height="114" viewBox="0 0 114 114" fill="none" xmlns="http://www.w3.org/2000/svg">
<g id="wrapper-filters-count">
<path id="Vector" d="M9.5 23.75C6.8875 23.75 4.75 25.8875 4.75 28.5V99.75C4.75 104.975 9.025 109.25 14.25 109.25H85.5C88.1125 109.25 90.25 107.112 90.25 104.5C90.25 101.888 88.1125 99.75 85.5 99.75H19C16.3875 99.75 14.25 97.6125 14.25 95V28.5C14.25 25.8875 12.1125 23.75 9.5 23.75ZM99.75 4.75H33.25C28.025 4.75 23.75 9.025 23.75 14.25V80.75C23.75 85.975 28.025 90.25 33.25 90.25H99.75C104.975 90.25 109.25 85.975 109.25 80.75V14.25C109.25 9.025 104.975 4.75 99.75 4.75ZM95 80.75H38C35.3875 80.75 33.25 78.6125 33.25 76V19C33.25 16.3875 35.3875 14.25 38 14.25H95C97.6125 14.25 99.75 16.3875 99.75 19V76C99.75 78.6125 97.6125 80.75 95 80.75Z" fill="black"/>
</g>
</svg>
