<svg width="32" height="32" viewBox="0 0 32 32" fill="none" xmlns="http://www.w3.org/2000/svg">
<g id="question-svg" opacity="0.9">
<path id="Vector" d="M16.0003 29.3337C23.3641 29.3337 29.3337 23.3641 29.3337 16.0003C29.3337 8.63653 23.3641 2.66699 16.0003 2.66699C8.63653 2.66699 2.66699 8.63653 2.66699 16.0003C2.66699 23.3641 8.63653 29.3337 16.0003 29.3337Z" stroke="black" strokeLinecap="round" strokeLinejoin="round"/>
<path id="Vector_2" d="M12.1201 11.9998C12.4336 11.1087 13.0523 10.3573 13.8667 9.87863C14.6811 9.39999 15.6386 9.22503 16.5697 9.38473C17.5007 9.54443 18.3452 10.0285 18.9536 10.7512C19.5619 11.4738 19.8949 12.3885 19.8935 13.3331C19.8935 15.9998 15.8935 17.3331 15.8935 17.3331V20.3145" stroke="black" strokeLinecap="round" strokeLinejoin="round"/>
<path id="Vector_3" d="M16 22.667H16.0133" stroke="black" strokeLinecap="round" strokeLinejoin="round"/>
</g>
</svg>
