<svg width="32" height="32" viewBox="0 0 32 32" fill="none" xmlns="http://www.w3.org/2000/svg">
<g id="question-svg" opacity="0.9">
<path id="Vector" d="M16.0003 29.3337C23.3641 29.3337 29.3337 23.3641 29.3337 16.0003C29.3337 8.63653 23.3641 2.66699 16.0003 2.66699C8.63653 2.66699 2.66699 8.63653 2.66699 16.0003C2.66699 23.3641 8.63653 29.3337 16.0003 29.3337Z" stroke="black" strokeLinecap="round" strokeLinejoin="round"/>
<path id="Vector_2" d="M19 9C19 9 16.5456 10.4978 15 11.5C13.8186 12.2661 13.1345 12.666 12 13.5C10.9926 14.2406 9.5 15.5 9.5 15.5C9.5 15.5 10.9216 17.4216 12 18.5C13.0784 19.5784 15 21 15 21L18.0003 23.5006" stroke="black" strokeLinecap="round" strokeLinejoin="round"/>
</g>
</svg>
