<svg width="665" height="436" viewBox="0 0 665 436" fill="none" xmlns="http://www.w3.org/2000/svg">
<g id="syllie-exit-animation-1">
<g id="Vector 9" filter="url(#filter0_dii_744_2199)">
<path d="M27.4909 158.576C12.8604 190.098 1.9721 210.074 0.659548 245.808C-0.624688 280.77 5.84369 311.914 20.0716 333.106C40.6036 363.687 56.2813 375.343 85.7279 393.543C121.818 415.85 147.074 418.813 188.311 427.119C240.464 437.624 324.196 433.834 324.196 433.834C324.196 433.834 415.967 434.192 473.023 421.778C509.523 413.836 533.055 414.249 564.562 393.543C596.09 372.823 613.082 352.922 628.321 319.675C640.457 293.198 642.27 275.109 641.262 245.808C640.037 210.186 629.796 189.656 615.379 158.576C602.279 130.334 589.758 108.637 564.562 84.7085C538.418 59.8797 513.364 37.7264 473.023 24.2713C413.125 4.29321 381.996 -0.216891 323.385 0.587289C270.148 1.31774 238.785 5.52598 188.311 24.2713C144.938 40.3793 120.246 53.0493 85.7279 84.7085C58.8165 109.391 43.0766 124.996 27.4909 158.576Z" fill="url(#paint0_radial_744_2199)" shapeRendering="crispEdges"/>
<path d="M27.4909 158.576C12.8604 190.098 1.9721 210.074 0.659548 245.808C-0.624688 280.77 5.84369 311.914 20.0716 333.106C40.6036 363.687 56.2813 375.343 85.7279 393.543C121.818 415.85 147.074 418.813 188.311 427.119C240.464 437.624 324.196 433.834 324.196 433.834C324.196 433.834 415.967 434.192 473.023 421.778C509.523 413.836 533.055 414.249 564.562 393.543C596.09 372.823 613.082 352.922 628.321 319.675C640.457 293.198 642.27 275.109 641.262 245.808C640.037 210.186 629.796 189.656 615.379 158.576C602.279 130.334 589.758 108.637 564.562 84.7085C538.418 59.8797 513.364 37.7264 473.023 24.2713C413.125 4.29321 381.996 -0.216891 323.385 0.587289C270.148 1.31774 238.785 5.52598 188.311 24.2713C144.938 40.3793 120.246 53.0493 85.7279 84.7085C58.8165 109.391 43.0766 124.996 27.4909 158.576Z" fill="url(#paint1_radial_744_2199)" shapeRendering="crispEdges"/>
</g>
<g id="Vector 10">
<path d="M209.468 170.103C196.634 167.532 193.139 166.252 180.382 169.183C158.434 174.224 144.714 183.214 133.462 202.749C122.916 221.057 124.398 236.481 129.033 257.374C132.816 274.426 138.951 283.154 148.938 297.363L149.142 297.653C165.159 320.441 182.761 340.42 202.765 344.645C218.345 347.935 227.805 349.465 242.982 344.645C259.721 339.329 274.914 328.518 286.37 315.19C298.802 300.724 300.47 288.61 299.776 268.197C299.212 251.626 295.117 245.65 286.37 227.918C278.945 212.869 272.539 204.973 259.558 194.353C245.959 183.227 226.687 173.552 209.468 170.103Z" fill="url(#paint2_radial_744_2199)"/>
<path d="M209.468 170.103C196.634 167.532 193.139 166.252 180.382 169.183C158.434 174.224 144.714 183.214 133.462 202.749C122.916 221.057 124.398 236.481 129.033 257.374C132.816 274.426 138.951 283.154 148.938 297.363L149.142 297.653C165.159 320.441 182.761 340.42 202.765 344.645C218.345 347.935 227.805 349.465 242.982 344.645C259.721 339.329 274.914 328.518 286.37 315.19C298.802 300.724 300.47 288.61 299.776 268.197C299.212 251.626 295.117 245.65 286.37 227.918C278.945 212.869 272.539 204.973 259.558 194.353C245.959 183.227 226.687 173.552 209.468 170.103Z" fill="url(#paint3_radial_744_2199)"/>
</g>
<path id="Vector 11" d="M480.872 175.021C493.696 172.531 497.188 171.292 509.935 174.13C531.867 179.013 545.576 187.719 556.82 206.639C567.357 224.372 565.876 239.31 561.245 259.546C557.464 276.061 551.335 284.515 541.355 298.276L541.151 298.557C525.147 320.629 507.559 339.979 487.569 344.071C472.001 347.258 462.549 348.739 447.383 344.071C430.657 338.923 415.475 328.452 404.028 315.542C391.606 301.532 389.939 289.799 390.633 270.029C391.196 253.979 395.288 248.191 404.028 231.017C411.447 216.441 417.849 208.794 430.82 198.508C444.408 187.732 463.666 178.361 480.872 175.021Z" fill="url(#paint4_radial_744_2199)"/>
</g>
<defs>
<filter id="filter0_dii_744_2199" x="0" y="-3.5" width="643" height="439.5" filterUnits="userSpaceOnUse" colorInterpolationFilters="sRGB">
<feFlood floodOpacity="0" result="BackgroundImageFix"/>
<feColorMatrix in="SourceAlpha" type="matrix" values="0 0 0 0 0 0 0 0 0 0 0 0 0 0 0 0 0 0 127 0" result="hardAlpha"/>
<feOffset dx="0.5" dy="0.5"/>
<feGaussianBlur stdDeviation="0.5"/>
<feComposite in2="hardAlpha" operator="out"/>
<feColorMatrix type="matrix" values="0 0 0 0 0 0 0 0 0 0 0 0 0 0 0 0 0 0 0.25 0"/>
<feBlend mode="normal" in2="BackgroundImageFix" result="effect1_dropShadow_744_2199"/>
<feBlend mode="normal" in="SourceGraphic" in2="effect1_dropShadow_744_2199" result="shape"/>
<feColorMatrix in="SourceAlpha" type="matrix" values="0 0 0 0 0 0 0 0 0 0 0 0 0 0 0 0 0 0 127 0" result="hardAlpha"/>
<feOffset dx="1" dy="1"/>
<feGaussianBlur stdDeviation="2"/>
<feComposite in2="hardAlpha" operator="arithmetic" k2="-1" k3="1"/>
<feColorMatrix type="matrix" values="0 0 0 0 0 0 0 0 0 0 0 0 0 0 0 0 0 0 0.25 0"/>
<feBlend mode="normal" in2="shape" result="effect2_innerShadow_744_2199"/>
<feColorMatrix in="SourceAlpha" type="matrix" values="0 0 0 0 0 0 0 0 0 0 0 0 0 0 0 0 0 0 127 0" result="hardAlpha"/>
<feOffset dx="1" dy="-4"/>
<feGaussianBlur stdDeviation="2"/>
<feComposite in2="hardAlpha" operator="arithmetic" k2="-1" k3="1"/>
<feColorMatrix type="matrix" values="0 0 0 0 0.696154 0 0 0 0 0.696154 0 0 0 0 0.696154 0 0 0 0.25 0"/>
<feBlend mode="normal" in2="effect2_innerShadow_744_2199" result="effect3_innerShadow_744_2199"/>
</filter>
<radialGradient id="paint0_radial_744_2199" cx="0" cy="0" r="1" gradientTransform="matrix(259.381 510.195 -280.249 152.79 118.861 -29.9873)" gradientUnits="userSpaceOnUse">
<stop stopColor="#A1A19A" stopOpacity="0.5"/>
<stop offset="0.567385" stopColor="#676766"/>
<stop offset="1" stopColor="#373732"/>
</radialGradient>
<radialGradient id="paint1_radial_744_2199" cx="0" cy="0" r="1" gradientTransform="matrix(390.563 187.771 -278.973 625.271 60.426 179.094)" gradientUnits="userSpaceOnUse">
<stop stopColor="#A1A19A"/>
<stop offset="0.506669" stopColor="#393934" stopOpacity="0.5"/>
<stop offset="1" stopColor="#21211D" stopOpacity="0.5"/>
</radialGradient>
<radialGradient id="paint2_radial_744_2199" cx="0" cy="0" r="1" gradientTransform="matrix(-194.384 -127.55 234.712 -358.793 305.496 328.616)" gradientUnits="userSpaceOnUse">
<stop offset="0.122263" stopColor="#236A96"/>
<stop offset="0.853424" stopColor="#A8C1D1"/>
</radialGradient>
<radialGradient id="paint3_radial_744_2199" cx="0" cy="0" r="1" gradientTransform="matrix(-67.0291 -100.697 185.299 -123.722 198.249 281.624)" gradientUnits="userSpaceOnUse">
<stop offset="0.122263" stopColor="#236A96" stopOpacity="0.7"/>
<stop offset="0.853424" stopColor="#A8C1D1" stopOpacity="0.5"/>
</radialGradient>
<radialGradient id="paint4_radial_744_2199" cx="0" cy="0" r="1" gradientTransform="matrix(93.8408 -194.682 -191.064 -91.4565 476.655 313.477)" gradientUnits="userSpaceOnUse">
<stop offset="0.0062933" stopColor="#236A96"/>
<stop offset="1" stopColor="#A8C1D1"/>
</radialGradient>
</defs>
</svg>
