<svg width="665" height="436" viewBox="0 0 665 436" fill="none" xmlns="http://www.w3.org/2000/svg">
<g filter="url(#filter0_dii_744_2205)">
<path d="M27.4909 158.576C12.8604 190.098 1.9721 210.074 0.659548 245.808C-0.624688 280.77 5.84369 311.914 20.0716 333.106C40.6036 363.687 56.2813 375.343 85.7279 393.543C121.818 415.85 147.074 418.813 188.311 427.119C240.464 437.624 324.196 433.834 324.196 433.834C324.196 433.834 415.967 434.192 473.023 421.778C509.523 413.836 533.055 414.249 564.562 393.543C596.09 372.823 613.082 352.922 628.321 319.675C640.457 293.198 642.27 275.109 641.262 245.808C640.037 210.186 629.796 189.656 615.379 158.576C602.279 130.334 589.758 108.637 564.562 84.7085C538.418 59.8797 513.364 37.7264 473.023 24.2713C413.125 4.29321 381.996 -0.216891 323.385 0.587289C270.148 1.31774 238.785 5.52598 188.311 24.2713C144.938 40.3793 120.246 53.0493 85.7279 84.7085C58.8165 109.391 43.0766 124.996 27.4909 158.576Z" fill="url(#paint0_radial_744_2205)" shapeRendering="crispEdges"/>
<path d="M27.4909 158.576C12.8604 190.098 1.9721 210.074 0.659548 245.808C-0.624688 280.77 5.84369 311.914 20.0716 333.106C40.6036 363.687 56.2813 375.343 85.7279 393.543C121.818 415.85 147.074 418.813 188.311 427.119C240.464 437.624 324.196 433.834 324.196 433.834C324.196 433.834 415.967 434.192 473.023 421.778C509.523 413.836 533.055 414.249 564.562 393.543C596.09 372.823 613.082 352.922 628.321 319.675C640.457 293.198 642.27 275.109 641.262 245.808C640.037 210.186 629.796 189.656 615.379 158.576C602.279 130.334 589.758 108.637 564.562 84.7085C538.418 59.8797 513.364 37.7264 473.023 24.2713C413.125 4.29321 381.996 -0.216891 323.385 0.587289C270.148 1.31774 238.785 5.52598 188.311 24.2713C144.938 40.3793 120.246 53.0493 85.7279 84.7085C58.8165 109.391 43.0766 124.996 27.4909 158.576Z" fill="url(#paint1_radial_744_2205)" shapeRendering="crispEdges"/>
</g>
<path d="M179.431 85.7696C166.442 84.1529 162.863 83.1348 150.357 86.9985C128.84 93.646 115.821 103.623 106.041 123.935C96.875 142.972 99.4912 158.244 105.656 178.738C110.687 195.465 117.449 203.716 128.457 217.149L128.682 217.423C146.337 238.968 165.364 257.593 185.626 260.331C201.406 262.463 210.953 263.29 225.734 257.363C242.034 250.827 256.389 238.924 266.829 224.786C278.16 209.443 278.93 197.239 276.731 176.933C274.946 160.449 270.422 154.791 260.39 137.753C251.875 123.292 244.903 115.891 231.174 106.257C216.791 96.1651 196.857 87.9386 179.431 85.7696Z" fill="url(#paint2_radial_744_2205)"/>
<path d="M179.431 85.7696C166.442 84.1529 162.863 83.1348 150.357 86.9985C128.84 93.646 115.821 103.623 106.041 123.935C96.875 142.972 99.4912 158.244 105.656 178.738C110.687 195.465 117.449 203.716 128.457 217.149L128.682 217.423C146.337 238.968 165.364 257.593 185.626 260.331C201.406 262.463 210.953 263.29 225.734 257.363C242.034 250.827 256.389 238.924 266.829 224.786C278.16 209.443 278.93 197.239 276.731 176.933C274.946 160.449 270.422 154.791 260.39 137.753C251.875 123.292 244.903 115.891 231.174 106.257C216.791 96.1651 196.857 87.9386 179.431 85.7696Z" fill="url(#paint3_radial_744_2205)"/>
<path d="M435.728 86.6225C448.273 82.9794 451.638 81.4285 464.591 83.0985C486.874 85.9716 501.318 93.3984 514.231 111.22C526.334 127.924 526.215 142.935 523.438 163.507C521.172 180.298 515.834 189.272 507.144 203.882L506.967 204.181C493.03 227.613 477.271 248.479 457.735 254.368C442.52 258.954 433.241 261.287 417.714 258.014C400.59 254.404 384.521 245.354 371.95 233.536C358.308 220.711 355.584 209.177 354.481 189.426C353.585 173.391 357.135 167.255 364.282 149.36C370.348 134.171 376.029 125.974 388.013 114.554C400.568 102.589 418.896 91.5102 435.728 86.6225Z" fill="url(#paint4_radial_744_2205)"/>
<defs>
<filter id="filter0_dii_744_2205" x="0" y="-3.5" width="643" height="439.5" filterUnits="userSpaceOnUse" colorInterpolationFilters="sRGB">
<feFlood floodOpacity="0" result="BackgroundImageFix"/>
<feColorMatrix in="SourceAlpha" type="matrix" values="0 0 0 0 0 0 0 0 0 0 0 0 0 0 0 0 0 0 127 0" result="hardAlpha"/>
<feOffset dx="0.5" dy="0.5"/>
<feGaussianBlur stdDeviation="0.5"/>
<feComposite in2="hardAlpha" operator="out"/>
<feColorMatrix type="matrix" values="0 0 0 0 0 0 0 0 0 0 0 0 0 0 0 0 0 0 0.25 0"/>
<feBlend mode="normal" in2="BackgroundImageFix" result="effect1_dropShadow_744_2205"/>
<feBlend mode="normal" in="SourceGraphic" in2="effect1_dropShadow_744_2205" result="shape"/>
<feColorMatrix in="SourceAlpha" type="matrix" values="0 0 0 0 0 0 0 0 0 0 0 0 0 0 0 0 0 0 127 0" result="hardAlpha"/>
<feOffset dx="1" dy="1"/>
<feGaussianBlur stdDeviation="2"/>
<feComposite in2="hardAlpha" operator="arithmetic" k2="-1" k3="1"/>
<feColorMatrix type="matrix" values="0 0 0 0 0 0 0 0 0 0 0 0 0 0 0 0 0 0 0.25 0"/>
<feBlend mode="normal" in2="shape" result="effect2_innerShadow_744_2205"/>
<feColorMatrix in="SourceAlpha" type="matrix" values="0 0 0 0 0 0 0 0 0 0 0 0 0 0 0 0 0 0 127 0" result="hardAlpha"/>
<feOffset dx="1" dy="-4"/>
<feGaussianBlur stdDeviation="2"/>
<feComposite in2="hardAlpha" operator="arithmetic" k2="-1" k3="1"/>
<feColorMatrix type="matrix" values="0 0 0 0 0.696154 0 0 0 0 0.696154 0 0 0 0 0.696154 0 0 0 0.25 0"/>
<feBlend mode="normal" in2="effect2_innerShadow_744_2205" result="effect3_innerShadow_744_2205"/>
</filter>
<radialGradient id="paint0_radial_744_2205" cx="0" cy="0" r="1" gradientTransform="matrix(259.381 510.195 -280.249 152.79 118.861 -29.9873)" gradientUnits="userSpaceOnUse">
<stop stopColor="#A1A19A" stopOpacity="0.5"/>
<stop offset="0.567385" stopColor="#676766"/>
<stop offset="1" stopColor="#373732"/>
</radialGradient>
<radialGradient id="paint1_radial_744_2205" cx="0" cy="0" r="1" gradientTransform="matrix(390.563 187.771 -278.973 625.271 60.426 179.094)" gradientUnits="userSpaceOnUse">
<stop stopColor="#A1A19A"/>
<stop offset="0.506669" stopColor="#393934" stopOpacity="0.5"/>
<stop offset="1" stopColor="#21211D" stopOpacity="0.5"/>
</radialGradient>
<radialGradient id="paint2_radial_744_2205" cx="0" cy="0" r="1" gradientTransform="matrix(-203.266 -112.859 207.597 -375.134 286.894 236.765)" gradientUnits="userSpaceOnUse">
<stop offset="0.122263" stopColor="#236A96"/>
<stop offset="0.853424" stopColor="#A8C1D1"/>
</radialGradient>
<radialGradient id="paint3_radial_744_2205" cx="0" cy="0" r="1" gradientTransform="matrix(-74.2769 -95.4768 175.664 -137.058 176.472 197.815)" gradientUnits="userSpaceOnUse">
<stop offset="0.122263" stopColor="#236A96" stopOpacity="0.7"/>
<stop offset="0.853424" stopColor="#A8C1D1" stopOpacity="0.5"/>
</radialGradient>
<radialGradient id="paint4_radial_744_2205" cx="0" cy="0" r="1" gradientTransform="matrix(75.7911 -202.393 -198.573 -73.7448 444.09 224.89)" gradientUnits="userSpaceOnUse">
<stop offset="0.0062933" stopColor="#236A96"/>
<stop offset="1" stopColor="#A8C1D1"/>
</radialGradient>
</defs>
</svg>
